<mxfile host="app.diagrams.net" modified="2023-10-17T20:07:11.934Z" agent="Mozilla/5.0 (Windows NT 10.0; Win64; x64) AppleWebKit/537.36 (KHTML, like Gecko) Chrome/118.0.0.0 Safari/537.36" version="22.0.4" etag="-rPZCKBEX4u8rE88sNF_" type="github">
  <diagram name="PÃ¡gina-1" id="7G2YZbtVaTADAALDk_Gk">
    <mxGraphModel>
      <root>
        <mxCell id="0" />
        <mxCell id="1" parent="0" />
      </root>
    </mxGraphModel>
  </diagram>
</mxfile>
